<mxfile host="app.diagrams.net" agent="Mozilla/5.0 (Macintosh; Intel Mac OS X 10_15_7) AppleWebKit/537.36 (KHTML, like Gecko) Chrome/133.0.0.0 Safari/537.36" version="26.1.1">
  <diagram name="第 1 页" id="3pNBY4O2HRS1JANwXFuV">
    <mxGraphModel dx="1242" dy="785" grid="1" gridSize="10" guides="1" tooltips="1" connect="1" arrows="1" fold="1" page="1" pageScale="1" pageWidth="827" pageHeight="1169" math="0" shadow="0">
      <root>
        <mxCell id="0" />
        <mxCell id="1" parent="0" />
        <mxCell id="7bwTMH5lr8hEjl6o-w8Y-1" value="企业微信QA" style="rounded=1;whiteSpace=wrap;html=1;" vertex="1" parent="1">
          <mxGeometry x="112" y="430" width="122" height="30" as="geometry" />
        </mxCell>
        <mxCell id="7bwTMH5lr8hEjl6o-w8Y-3" value="" style="endArrow=classic;html=1;rounded=0;" edge="1" parent="1">
          <mxGeometry width="50" height="50" relative="1" as="geometry">
            <mxPoint x="30" y="310" as="sourcePoint" />
            <mxPoint x="740" y="310" as="targetPoint" />
          </mxGeometry>
        </mxCell>
        <mxCell id="7bwTMH5lr8hEjl6o-w8Y-4" value="" style="endArrow=classic;html=1;rounded=0;" edge="1" parent="1">
          <mxGeometry width="50" height="50" relative="1" as="geometry">
            <mxPoint x="30" y="420" as="sourcePoint" />
            <mxPoint x="740" y="420" as="targetPoint" />
          </mxGeometry>
        </mxCell>
        <mxCell id="7bwTMH5lr8hEjl6o-w8Y-5" value="ceiba AI门户" style="rounded=1;whiteSpace=wrap;html=1;" vertex="1" parent="1">
          <mxGeometry x="240" y="430" width="140" height="30" as="geometry" />
        </mxCell>
        <mxCell id="7bwTMH5lr8hEjl6o-w8Y-6" value="小红书（爬取 -&amp;gt; 分析 -&amp;gt; 生成（文本、文字图文、素材图文、视频）" style="rounded=1;whiteSpace=wrap;html=1;" vertex="1" parent="1">
          <mxGeometry x="290" y="380" width="380" height="30" as="geometry" />
        </mxCell>
        <mxCell id="7bwTMH5lr8hEjl6o-w8Y-7" value="AI 插件协同" style="rounded=1;whiteSpace=wrap;html=1;" vertex="1" parent="1">
          <mxGeometry x="530" y="430" width="140" height="30" as="geometry" />
        </mxCell>
        <mxCell id="7bwTMH5lr8hEjl6o-w8Y-11" value="artifacts集成" style="rounded=1;whiteSpace=wrap;html=1;" vertex="1" parent="1">
          <mxGeometry x="390" y="430" width="134" height="30" as="geometry" />
        </mxCell>
        <mxCell id="7bwTMH5lr8hEjl6o-w8Y-12" value="&lt;h1 style=&quot;margin-top: 0px;&quot;&gt;artifacts&lt;/h1&gt;&lt;p&gt;1. markdown&lt;/p&gt;&lt;p&gt;2. 代码&lt;/p&gt;&lt;p&gt;3. 物料信息卡片&lt;/p&gt;&lt;p&gt;4. 图表&lt;/p&gt;" style="text;html=1;whiteSpace=wrap;overflow=hidden;rounded=0;" vertex="1" parent="1">
          <mxGeometry x="402" y="470" width="110" height="160" as="geometry" />
        </mxCell>
        <mxCell id="7bwTMH5lr8hEjl6o-w8Y-13" value="&lt;h1 style=&quot;margin-top: 0px;&quot;&gt;extension&lt;/h1&gt;&lt;p&gt;1. figma插件&lt;/p&gt;&lt;p&gt;2. 预览插件&lt;/p&gt;&lt;p&gt;3. 小红书插件&lt;/p&gt;&lt;p&gt;4. 小红书发布插件&lt;/p&gt;" style="text;html=1;whiteSpace=wrap;overflow=hidden;rounded=0;" vertex="1" parent="1">
          <mxGeometry x="540" y="470" width="120" height="160" as="geometry" />
        </mxCell>
        <mxCell id="7bwTMH5lr8hEjl6o-w8Y-25" style="edgeStyle=orthogonalEdgeStyle;rounded=0;orthogonalLoop=1;jettySize=auto;html=1;exitX=0.5;exitY=1;exitDx=0;exitDy=0;" edge="1" parent="1" source="7bwTMH5lr8hEjl6o-w8Y-14" target="7bwTMH5lr8hEjl6o-w8Y-1">
          <mxGeometry relative="1" as="geometry" />
        </mxCell>
        <mxCell id="7bwTMH5lr8hEjl6o-w8Y-14" value="运营文档标准化" style="rounded=1;whiteSpace=wrap;html=1;" vertex="1" parent="1">
          <mxGeometry x="118" y="270" width="110" height="30" as="geometry" />
        </mxCell>
        <mxCell id="7bwTMH5lr8hEjl6o-w8Y-23" style="edgeStyle=orthogonalEdgeStyle;rounded=0;orthogonalLoop=1;jettySize=auto;html=1;exitX=0.5;exitY=1;exitDx=0;exitDy=0;entryX=0.5;entryY=0;entryDx=0;entryDy=0;" edge="1" parent="1" source="7bwTMH5lr8hEjl6o-w8Y-15" target="7bwTMH5lr8hEjl6o-w8Y-11">
          <mxGeometry relative="1" as="geometry" />
        </mxCell>
        <mxCell id="7bwTMH5lr8hEjl6o-w8Y-15" value="组件开发模式固化" style="rounded=1;whiteSpace=wrap;html=1;" vertex="1" parent="1">
          <mxGeometry x="240" y="270" width="110" height="30" as="geometry" />
        </mxCell>
        <mxCell id="7bwTMH5lr8hEjl6o-w8Y-16" value="条件查询模式固化" style="rounded=1;whiteSpace=wrap;html=1;" vertex="1" parent="1">
          <mxGeometry x="240" y="230" width="110" height="30" as="geometry" />
        </mxCell>
        <mxCell id="7bwTMH5lr8hEjl6o-w8Y-18" value="物料元数据标准化" style="rounded=1;whiteSpace=wrap;html=1;" vertex="1" parent="1">
          <mxGeometry x="380" y="230" width="110" height="30" as="geometry" />
        </mxCell>
        <mxCell id="7bwTMH5lr8hEjl6o-w8Y-24" style="edgeStyle=orthogonalEdgeStyle;rounded=0;orthogonalLoop=1;jettySize=auto;html=1;exitX=0.5;exitY=1;exitDx=0;exitDy=0;" edge="1" parent="1" source="7bwTMH5lr8hEjl6o-w8Y-19" target="7bwTMH5lr8hEjl6o-w8Y-11">
          <mxGeometry relative="1" as="geometry" />
        </mxCell>
        <mxCell id="7bwTMH5lr8hEjl6o-w8Y-19" value="数据建设标准化" style="rounded=1;whiteSpace=wrap;html=1;" vertex="1" parent="1">
          <mxGeometry x="380" y="270" width="110" height="30" as="geometry" />
        </mxCell>
        <mxCell id="7bwTMH5lr8hEjl6o-w8Y-21" value="开发文档标准化" style="rounded=1;whiteSpace=wrap;html=1;" vertex="1" parent="1">
          <mxGeometry x="118" y="230" width="110" height="30" as="geometry" />
        </mxCell>
      </root>
    </mxGraphModel>
  </diagram>
</mxfile>
